<?xml version="1.0" encoding="UTF-8"?>
<svg id="Layer_1" xmlns="http://www.w3.org/2000/svg" version="1.1" viewBox="0 0 793 323.63">
  <!-- Generator: Adobe Illustrator 30.2.1, SVG Export Plug-In . SVG Version: 2.1.1 Build 1)  -->
  <defs>
    <style>
      .st0 {
        fill: #ffcd02;
        stroke: #102448;
        stroke-width: 1.21px;
      }

      .st0, .st1, .st2 {
        stroke-miterlimit: 10;
      }

      .st1 {
        stroke-width: 1.22px;
      }

      .st1, .st2 {
        stroke: #112547;
      }

      .st1, .st2, .st3 {
        fill: #102448;
      }

      .st2 {
        stroke-width: 1.26px;
      }

      .st4 {
        fill: #8e1f1f;
      }
    </style>
  </defs>
  <g id="Layer_2">
    <g>
      <path class="st3" d="M15.54,181.44L55.69,6.4h58.45l-40.46,175.37c-6.1,26.66-3.54,35.97,15.41,35.97s26.33-9.31,32.76-36.29L162,6.4h24.74l-40.15,175.05c-11.89,50.75-35.01,65.2-74.19,65.2S3.65,232.2,15.54,181.45h0Z"/>
      <path class="st3" d="M202.15,6.4h55.56l-54.6,237.03h-55.56S202.15,6.4,202.15,6.4Z"/>
      <path class="st3" d="M259.95,251.77l-12.2-168.95h55.24l5.45,77.73,41.11-77.73h22.16l-115.62,218.41h-22.16l26.02-49.46h0Z"/>
      <path class="st3" d="M336.07,241.18l4.17-17.99c5.78.65,10.92.96,17.02.96,16.38,0,20.23-4.82,22.48-13.48.96-4.17.65-8.35-1.61-16.06-1.61-5.78-4.17-13.17-8.03-23.77-3.21-10.27-5.78-18.3-6.75-25.05-1.28-9.64-.65-19.92.96-26.33,5.45-23.44,26.66-38.22,63.27-38.22,16.38,0,23.44,1.93,29.56,3.86l-4.17,17.99c-4.82-.65-8.68-.96-14.13-.96-14.78,0-17.67,4.82-19.92,14.13-.65,3.54-.32,7.38,1.61,14.45,1.93,6.1,4.49,14.13,8.68,26.02,3.86,10.92,6.1,19.27,7.07,26.02.96,8.68.32,17.67-.96,23.44-6.1,26.98-27.63,38.87-61.34,38.87-14.45,0-31.47-2.25-37.9-3.86h0Z"/>
      <path class="st3" d="M431.46,241.18l4.17-17.99c5.78.65,10.92.96,17.02.96,16.38,0,20.23-4.82,22.48-13.48.96-4.17.65-8.35-1.61-16.06-1.61-5.78-4.17-13.17-8.03-23.77-3.21-10.27-5.78-18.3-6.75-25.05-1.28-9.64-.65-19.92.96-26.33,5.45-23.44,26.66-38.22,63.27-38.22,16.38,0,23.44,1.93,29.54,3.86l-4.17,17.99c-4.82-.65-8.68-.96-14.13-.96-14.78,0-17.67,4.82-19.92,14.13-.65,3.54-.32,7.38,1.61,14.45,1.93,6.1,4.49,14.13,8.68,26.02,3.86,10.92,6.1,19.27,7.07,26.02.96,8.68.32,17.67-.96,23.44-6.1,26.98-27.63,38.87-61.34,38.87-14.45,0-31.47-2.25-37.9-3.86h.01Z"/>
      <path class="st3" d="M547.73,156.71c15.41-66.81,44.32-77.09,79.01-77.09,39.83,0,56.52,14.78,41.76,79.01-1.61,7.38-4.17,17.02-5.78,21.84h-66.48c-8.68,40.46-2.56,43.69,17.02,43.69,12.52,0,22.16-.32,33.4-.96l-4.17,17.99c-12.85,1.93-26.02,3.86-42.39,3.86-41.11,0-69.06-15.74-52.35-88.32h-.01ZM600.73,161.21h14.78c12.53-55.89,12.53-61.34,6.75-61.34-6.42,0-8.35,5.14-21.51,61.34h-.01Z"/>
      <path class="st3" d="M656.94,241.18l4.17-17.99c5.78.65,10.92.96,17.02.96,16.38,0,20.23-4.82,22.48-13.48.96-4.17.65-8.35-1.61-16.06-1.61-5.78-4.17-13.17-8.03-23.77-3.21-10.27-5.78-18.3-6.75-25.05-1.28-9.64-.65-19.92.96-26.33,5.45-23.44,26.66-38.22,63.27-38.22,16.38,0,23.44,1.93,29.54,3.86l-4.17,17.99c-4.82-.65-8.68-.96-14.13-.96-14.78,0-17.67,4.82-19.92,14.13-.65,3.54-.32,7.38,1.61,14.45,1.93,6.1,4.5,14.13,8.68,26.02,3.86,10.92,6.1,19.27,7.07,26.02.96,8.68.32,17.67-.96,23.44-6.1,26.98-27.63,38.87-61.34,38.87-14.45,0-31.47-2.25-37.9-3.86h.01Z"/>
    </g>
  </g>
  <g id="Layer_4">
    <g>
      <path class="st0" d="M552.47,277.95h-17.41v-11.89c0-3.45-.18-5.61-.56-6.47s-1.2-1.28-2.46-1.28c-1.43,0-2.34.52-2.73,1.56-.39,1.04-.57,3.29-.57,6.76v31.78c0,3.32.2,5.49.57,6.5s1.26,1.53,2.61,1.53,2.15-.51,2.54-1.53c.4-1.01.6-3.4.6-7.16v-8.6h17.41v2.66c0,7.08-.49,12.11-1.46,15.06-.98,2.97-3.15,5.55-6.49,7.79-3.36,2.23-7.48,3.34-12.39,3.34s-9.31-.94-12.62-2.83-5.5-4.5-6.58-7.83-1.61-8.36-1.61-15.06v-19.99c0-4.93.17-8.63.5-11.09.33-2.46,1.32-4.83,2.95-7.11s3.92-4.08,6.82-5.38,6.25-1.96,10.03-1.96c5.13,0,9.36,1.01,12.7,3.04,3.33,2.03,5.53,4.55,6.58,7.58,1.05,3.03,1.57,7.72,1.57,14.12v6.5-.02Z"/>
      <path class="st0" d="M558.7,248.16h12.32c8.21,0,13.78.33,16.69.98,2.9.65,5.28,2.31,7.11,4.97s2.75,6.91,2.75,12.74c0,5.32-.65,8.9-1.94,10.73s-3.84,2.93-7.65,3.29c3.44.88,5.76,2.04,6.94,3.5,1.18,1.46,1.93,2.81,2.21,4.04s.44,4.6.44,10.12v18.04h-16.17v-22.73c0-3.66-.28-5.93-.84-6.8-.56-.88-2.05-1.31-4.44-1.31v30.85h-17.41v-68.41h-.01ZM576.12,259.87v15.2c1.95,0,3.33-.28,4.11-.83s1.18-2.33,1.18-5.34v-3.76c0-2.17-.38-3.59-1.13-4.27s-2.15-1.01-4.16-1.01h0Z"/>
      <path class="st0" d="M658.06,248.16v68.41h-15.22l-.02-46.19-6.06,46.19h-10.8l-6.39-45.13-.02,45.13h-15.22v-68.41h22.53c.67,4.11,1.35,8.96,2.06,14.55l2.48,17.4,4-31.95h22.67Z"/>
    </g>
  </g>
  <g id="Layer_7">
    <g>
      <path class="st4" d="M661.96,260.5h15.02c10.9,0,16.6,3.2,16.6,13.56s-5.31,14.27-16.4,14.27h-4.22v15.86h-10.99v-43.7h0ZM676.01,285.85c5,0,6.58-1.78,6.58-11.6s-1.48-11.31-6.77-11.31h-2.84v22.92h3.04Z"/>
      <path class="st4" d="M712.84,286.02h-3.34v18.18h-10.8v-43.7h14.92c9.73,0,17.49,2.31,17.49,12.62,0,6.1-2.94,9.65-7.66,11.43l7.86,19.66h-11.2l-7.26-18.18h0ZM713.42,283.23c4.52,0,6.77-1.72,6.77-10.36s-2.36-9.95-6.97-9.95h-3.73v20.31h3.93Z"/>
      <path class="st4" d="M735.03,282.34c0-17.35,6.19-22.21,17.78-22.21s17.78,4.86,17.78,22.21-6.19,22.21-17.78,22.21-17.78-4.86-17.78-22.21ZM759.39,282.34c0-17.52-1.18-19.89-6.58-19.89s-6.58,2.37-6.58,19.89,1.18,19.89,6.58,19.89,6.58-2.43,6.58-19.89Z"/>
    </g>
    <path class="st1" d="M508.24,257.8h-222.5l4.88-10.06h224.94l-3.28,2.78c-2.03,1.72-3.4,4.08-3.93,6.69l-.11.59h0Z"/>
    <polygon class="st3" points="11 257.8 251.31 257.8 254.52 251.8 254.24 247.76 11 247.76 11 257.8"/>
    <rect class="st2" x="661.96" y="247.76" width="108.39" height="10.06"/>
    <rect class="st2" x="661.96" y="306.52" width="108.39" height="10.06"/>
  </g>
</svg>