<?xml version="1.0" encoding="UTF-8"?>
<svg xmlns="http://www.w3.org/2000/svg" version="1.1" viewBox="0 0 793 301">
  <!-- Generator: Adobe Illustrator 30.2.1, SVG Export Plug-In . SVG Version: 2.1.1 Build 1)  -->
  <defs>
    <style>
      .st0 {
        fill: #ffcd02;
      }

      .st1 {
        fill: #002349;
      }

      .st2 {
        fill: #102448;
      }

      .st3 {
        fill: #8d1e1f;
      }

      .st4 {
        display: none;
      }

      .st5 {
        fill: #102448;
      }

      .st6 {
        fill: #ffcc02;
      }
    </style>
  </defs>
  <g id="Layer_2" class="st4">
    <g>
      <path class="st1" d="M35.46,210.94l27.75-120.99h40.4l-27.97,121.21c-4.22,18.43-2.44,24.86,10.66,24.86s18.2-6.44,22.64-25.09l27.75-120.99h17.09l-27.75,120.99c-8.21,35.08-24.2,45.07-51.28,45.07s-47.51-9.99-39.29-45.07h0Z"/>
      <path class="st1" d="M164.45,89.95h38.41l-37.74,163.84h-38.41l37.74-163.84Z"/>
      <path class="st1" d="M204.41,259.56l-8.44-116.77h38.18l3.77,53.72,28.42-53.72h15.32l-79.92,150.96h-15.32l17.98-34.19h0Z"/>
      <path class="st1" d="M257.02,252.23l2.89-12.43c4,.44,7.55.67,11.77.67,11.32,0,13.99-3.33,15.54-9.32.67-2.89.44-5.77-1.11-11.1-1.11-4-2.89-9.1-5.55-16.43-2.22-7.1-4-12.65-4.66-17.32-.89-6.66-.44-13.76.67-18.2,3.77-16.21,18.43-26.42,43.73-26.42,11.32,0,16.21,1.33,20.42,2.66l-2.89,12.43c-3.33-.44-5.99-.67-9.77-.67-10.21,0-12.21,3.33-13.76,9.77-.44,2.44-.22,5.11,1.11,9.99,1.33,4.22,3.11,9.77,5.99,17.98,2.66,7.55,4.22,13.32,4.88,17.98.67,5.99.22,12.21-.67,16.21-4.22,18.65-19.09,26.86-42.4,26.86-9.99,0-21.76-1.55-26.2-2.66h0Z"/>
      <path class="st1" d="M322.95,252.23l2.89-12.43c4,.44,7.55.67,11.77.67,11.32,0,13.99-3.33,15.54-9.32.67-2.89.44-5.77-1.11-11.1-1.11-4-2.89-9.1-5.55-16.43-2.22-7.1-4-12.65-4.66-17.32-.89-6.66-.44-13.76.67-18.2,3.77-16.21,18.43-26.42,43.73-26.42,11.32,0,16.21,1.33,20.42,2.66l-2.89,12.43c-3.33-.44-5.99-.67-9.77-.67-10.21,0-12.21,3.33-13.76,9.77-.44,2.44-.22,5.11,1.11,9.99,1.33,4.22,3.11,9.77,5.99,17.98,2.66,7.55,4.22,13.32,4.88,17.98.67,5.99.22,12.21-.67,16.21-4.22,18.65-19.09,26.86-42.4,26.86-9.99,0-21.76-1.55-26.2-2.66h0Z"/>
      <path class="st1" d="M403.32,193.85c10.66-46.18,30.64-53.28,54.61-53.28,27.53,0,39.07,10.21,28.86,54.61-1.11,5.11-2.89,11.77-4,15.1h-45.95c-5.99,27.97-1.78,30.19,11.77,30.19,8.66,0,15.32-.22,23.09-.67l-2.89,12.43c-8.88,1.33-17.98,2.66-29.3,2.66-28.42,0-47.73-10.88-36.19-61.05h0ZM439.95,196.95h10.21c8.66-38.63,8.66-42.4,4.66-42.4-4.44,0-5.77,3.55-14.87,42.4h0Z"/>
      <path class="st1" d="M478.79,252.23l2.89-12.43c4,.44,7.55.67,11.77.67,11.32,0,13.99-3.33,15.54-9.32.67-2.89.44-5.77-1.11-11.1-1.11-4-2.89-9.1-5.55-16.43-2.22-7.1-4-12.65-4.66-17.32-.89-6.66-.44-13.76.67-18.2,3.77-16.21,18.43-26.42,43.73-26.42,11.32,0,16.21,1.33,20.42,2.66l-2.89,12.43c-3.33-.44-5.99-.67-9.77-.67-10.21,0-12.21,3.33-13.76,9.77-.44,2.44-.22,5.11,1.11,9.99,1.33,4.22,3.11,9.77,5.99,17.98,2.66,7.55,4.22,13.32,4.88,17.98.67,5.99.22,12.21-.67,16.21-4.22,18.65-19.09,26.86-42.4,26.86-9.99,0-21.76-1.55-26.2-2.66h.01Z"/>
    </g>
    <g>
      <path class="st0" d="M73.6,53.55l-.16,2.75c.84-1.11,1.77-1.94,2.79-2.49s2.12-.82,3.33-.82c1.47,0,2.74.39,3.81,1.18s1.74,1.7,2,2.73.4,2.78.4,5.25v13.1c0,2.83-.17,4.84-.5,6.04s-1.02,2.15-2.06,2.86-2.29,1.07-3.76,1.07c-1.17,0-2.26-.27-3.26-.82s-1.91-1.36-2.74-2.44v7.13h-9.47v-35.53h9.63,0ZM76.3,62.6c0-1.92-.07-3.09-.21-3.49s-.53-.61-1.17-.61-1.03.23-1.21.7-.27,1.6-.27,3.4v12.89c0,1.88.09,3.05.28,3.52s.59.7,1.22.7.99-.21,1.14-.64.22-1.47.22-3.13c0,0,0-13.34,0-13.34Z"/>
      <path class="st0" d="M98.35,53.55l-.38,4.09c1.38-2.93,3.37-4.48,5.98-4.65v10.95c-1.73,0-3.01.23-3.82.7s-1.31,1.12-1.5,1.96-.28,2.76-.28,5.78v12.28h-9.47v-31.1h9.47,0Z"/>
      <path class="st0" d="M127.48,64.47v7.62c0,2.8-.14,4.85-.42,6.15s-.88,2.52-1.8,3.66-2.11,1.97-3.55,2.51-3.11.81-4.98.81c-2.09,0-3.87-.23-5.32-.69s-2.58-1.16-3.39-2.09-1.38-2.05-1.72-3.38-.52-3.3-.52-5.94v-7.97c0-2.89.31-5.15.94-6.77s1.75-2.93,3.38-3.91,3.7-1.48,6.23-1.48c2.12,0,3.95.32,5.47.95s2.7,1.46,3.53,2.47,1.39,2.06,1.7,3.14.46,2.72.46,4.92h0ZM118.02,62.13c0-1.59-.09-2.6-.26-3.01s-.54-.62-1.1-.62-.94.21-1.12.62-.28,1.42-.28,3.01v14.04c0,1.47.09,2.43.28,2.87s.55.67,1.1.67.93-.2,1.11-.61.27-1.28.27-2.62v-14.34h0Z"/>
      <path class="st0" d="M140.63,53.55v24.61c0,2.89-.06,4.85-.18,5.87s-.48,1.92-1.08,2.7-1.41,1.35-2.41,1.72-2.52.56-4.54.56h-3.66v-4.97c1.12,0,1.76-.12,1.9-.38s.21-1.81.21-4.69v-25.43h9.76ZM140.63,46.71v4.95h-9.75v-4.95h9.75Z"/>
      <path class="st0" d="M165.48,69.65h-12.26v6.73c0,1.41.1,2.31.3,2.72s.59.61,1.17.61c.72,0,1.2-.27,1.44-.81s.36-1.58.36-3.13v-4.1h8.98v2.3c0,1.92-.12,3.4-.36,4.43s-.81,2.13-1.7,3.3-2.02,2.05-3.39,2.64-3.08.88-5.14.88-3.77-.29-5.3-.87-2.72-1.37-3.57-2.38-1.44-2.12-1.77-3.33-.49-2.97-.49-5.29v-9.07c0-2.72.37-4.86,1.1-6.43s1.94-2.77,3.61-3.61,3.59-1.25,5.77-1.25c2.66,0,4.85.5,6.57,1.51s2.94,2.34,3.63,4.01,1.04,4,1.04,7.02v4.12h0ZM155.98,64.59v-2.27c0-1.61-.09-2.65-.26-3.12s-.52-.7-1.05-.7c-.66,0-1.06.2-1.22.6s-.23,1.47-.23,3.22v2.27h2.77-.01Z"/>
      <path class="st0" d="M189.5,65.29h-8.93v-3.59c0-1.25-.1-2.1-.3-2.54s-.58-.67-1.12-.67-.91.2-1.1.59-.28,1.27-.28,2.62v14.67c0,1.11.14,1.94.42,2.5s.7.83,1.24.83c.64,0,1.07-.29,1.3-.87s.34-1.67.34-3.28v-3.7h8.44c-.02,2.48-.11,4.35-.27,5.59s-.69,2.52-1.57,3.82-2.04,2.29-3.46,2.95-3.18,1-5.27,1c-2.67,0-4.79-.46-6.35-1.37s-2.67-2.2-3.32-3.84-.97-3.99-.97-7.02v-8.84c0-2.64.27-4.63.8-5.98s1.66-2.54,3.4-3.6,3.84-1.58,6.33-1.58,4.58.52,6.33,1.57,2.91,2.37,3.49,3.96.87,3.85.87,6.77h-.02Z"/>
      <path class="st0" d="M202.3,49.4v4.9h2.55v4.92h-2.55v16.64c0,2.05.11,3.19.32,3.42s1.09.35,2.64.35v5.02h-3.82c-2.16,0-3.7-.09-4.62-.27s-1.73-.59-2.44-1.24-1.14-1.39-1.31-2.23-.26-2.8-.26-5.89v-15.8h-2.04v-4.92h2.04v-4.9h9.49,0Z"/>
    </g>
    <g>
      <path class="st0" d="M575.93,261.61h-14.8v-9.89c0-2.88-.16-4.67-.47-5.38s-1.01-1.07-2.09-1.07c-1.22,0-1.99.43-2.32,1.3-.33.87-.49,2.74-.49,5.62v26.44c0,2.77.16,4.57.49,5.41s1.07,1.27,2.21,1.27,1.82-.42,2.16-1.27c.34-.85.51-2.83.51-5.96v-7.15h14.8v2.22c0,5.89-.42,10.07-1.25,12.53s-2.67,4.62-5.52,6.48c-2.85,1.85-6.36,2.78-10.53,2.78s-7.91-.79-10.72-2.36-4.68-3.74-5.59-6.52-1.37-6.96-1.37-12.53v-16.63c0-4.1.14-7.18.42-9.23.28-2.05,1.12-4.03,2.51-5.92s3.33-3.39,5.8-4.48,5.31-1.63,8.53-1.63c4.36,0,7.96.84,10.79,2.53,2.84,1.69,4.7,3.79,5.59,6.3.89,2.52,1.34,6.43,1.34,11.74v5.41h0Z"/>
      <path class="st0" d="M581.24,236.83h10.48c6.98,0,11.71.27,14.19.81,2.47.54,4.49,1.92,6.05,4.13s2.34,5.75,2.34,10.6c0,4.43-.55,7.41-1.65,8.93-1.1,1.52-3.27,2.44-6.5,2.74,2.93.73,4.9,1.7,5.91,2.92,1.01,1.22,1.63,2.34,1.88,3.36s.37,3.83.37,8.42v15.01h-13.75v-18.91c0-3.05-.24-4.93-.72-5.66s-1.74-1.09-3.78-1.09v25.66h-14.8v-56.92h-.02ZM596.04,246.56v12.66c1.66,0,2.83-.23,3.5-.69s1-1.94,1-4.45v-3.13c0-1.8-.32-2.99-.97-3.55s-1.82-.84-3.53-.84Z"/>
      <path class="st0" d="M665.69,236.83v56.92h-12.94l-.02-38.43-5.15,38.43h-9.18l-5.43-37.55-.02,37.55h-12.94v-56.92h19.15c.57,3.42,1.15,7.46,1.76,12.1l2.1,14.48,3.4-26.58h19.27Z"/>
    </g>
  </g>
  <g id="Layer_3">
    <g>
      <path class="st5" d="M32.35,166l29.12-126.96h42.4l-29.35,127.2c-4.43,19.34-2.56,26.09,11.18,26.09s19.1-6.76,23.76-26.32l29.12-126.96h17.94l-29.12,126.96c-8.62,36.81-25.39,47.29-53.81,47.29s-49.85-10.48-41.23-47.29Z"/>
      <path class="st5" d="M167.69,39.04h40.3l-39.6,171.92h-40.3l39.6-171.92Z"/>
      <path class="st5" d="M209.63,217.02l-8.85-122.54h40.07l3.96,56.38,29.82-56.38h16.07l-83.86,158.41h-16.07l18.87-35.88Z"/>
      <path class="st5" d="M264.84,209.33l3.03-13.05c4.19.47,7.92.7,12.35.7,11.88,0,14.68-3.49,16.31-9.78.7-3.03.47-6.06-1.16-11.65-1.16-4.19-3.03-9.55-5.82-17.24-2.33-7.45-4.19-13.28-4.89-18.17-.93-6.99-.47-14.44.7-19.1,3.96-17.01,19.34-27.72,45.89-27.72,11.88,0,17.01,1.4,21.43,2.8l-3.03,13.05c-3.49-.47-6.29-.7-10.25-.7-10.72,0-12.81,3.49-14.44,10.25-.47,2.56-.23,5.36,1.17,10.48,1.4,4.43,3.26,10.25,6.29,18.87,2.8,7.92,4.43,13.98,5.13,18.87.7,6.29.23,12.81-.7,17.01-4.43,19.57-20.03,28.19-44.49,28.19-10.48,0-22.83-1.63-27.49-2.8Z"/>
      <path class="st5" d="M334.03,209.33l3.03-13.05c4.19.47,7.92.7,12.35.7,11.88,0,14.68-3.49,16.31-9.78.7-3.03.47-6.06-1.16-11.65-1.17-4.19-3.03-9.55-5.82-17.24-2.33-7.45-4.19-13.28-4.89-18.17-.93-6.99-.47-14.44.7-19.1,3.96-17.01,19.34-27.72,45.89-27.72,11.88,0,17.01,1.4,21.43,2.8l-3.03,13.05c-3.49-.47-6.29-.7-10.25-.7-10.72,0-12.81,3.49-14.44,10.25-.47,2.56-.23,5.36,1.17,10.48,1.4,4.43,3.26,10.25,6.29,18.87,2.8,7.92,4.43,13.98,5.12,18.87.7,6.29.23,12.81-.7,17.01-4.43,19.57-20.03,28.19-44.5,28.19-10.48,0-22.83-1.63-27.49-2.8Z"/>
      <path class="st5" d="M418.35,148.06c11.18-48.46,32.15-55.91,57.31-55.91,28.89,0,41,10.72,30.28,57.31-1.17,5.36-3.03,12.35-4.19,15.84h-48.22c-6.29,29.35-1.86,31.68,12.35,31.68,9.08,0,16.07-.23,24.23-.7l-3.03,13.05c-9.32,1.4-18.87,2.8-30.75,2.8-29.82,0-50.09-11.41-37.97-64.06ZM456.79,151.32h10.72c9.09-40.53,9.09-44.49,4.89-44.49-4.66,0-6.06,3.73-15.61,44.49Z"/>
      <path class="st5" d="M497.56,209.33l3.03-13.05c4.19.47,7.92.7,12.35.7,11.88,0,14.68-3.49,16.31-9.78.7-3.03.47-6.06-1.17-11.65-1.17-4.19-3.03-9.55-5.82-17.24-2.33-7.45-4.19-13.28-4.89-18.17-.93-6.99-.47-14.44.7-19.1,3.96-17.01,19.34-27.72,45.89-27.72,11.88,0,17.01,1.4,21.43,2.8l-3.03,13.05c-3.49-.47-6.29-.7-10.25-.7-10.72,0-12.81,3.49-14.44,10.25-.47,2.56-.23,5.36,1.16,10.48,1.4,4.43,3.26,10.25,6.29,18.87,2.8,7.92,4.43,13.98,5.12,18.87.7,6.29.23,12.81-.7,17.01-4.43,19.57-20.03,28.19-44.49,28.19-10.48,0-22.83-1.63-27.49-2.8Z"/>
    </g>
    <g>
      <path class="st6" d="M561.83,251.13h-18.75v-13c0-3.78-.2-6.14-.6-7.08s-1.28-1.41-2.65-1.41c-1.54,0-2.52.57-2.94,1.71-.42,1.14-.62,3.6-.62,7.39v34.75c0,3.64.21,6.01.62,7.12s1.35,1.66,2.81,1.66,2.31-.56,2.74-1.67c.43-1.11.65-3.72.65-7.83v-9.4h18.75v2.92c0,7.74-.53,13.23-1.58,16.47-1.05,3.24-3.39,6.08-6.99,8.52-3.61,2.44-8.06,3.66-13.34,3.66s-10.02-1.03-13.59-3.1-5.92-4.92-7.08-8.57-1.74-9.14-1.74-16.47v-21.86c0-5.39.18-9.43.53-12.13.36-2.7,1.42-5.29,3.19-7.79,1.77-2.5,4.22-4.46,7.35-5.89s6.73-2.15,10.8-2.15c5.52,0,10.08,1.11,13.68,3.32,3.59,2.22,5.95,4.98,7.08,8.28,1.13,3.31,1.69,8.45,1.69,15.44v7.11Z"/>
      <path class="st6" d="M568.55,218.56h13.28c8.85,0,14.84.35,17.98,1.06,3.13.71,5.69,2.52,7.66,5.43s2.96,7.56,2.96,13.93c0,5.82-.7,9.73-2.09,11.74-1.4,2-4.14,3.2-8.24,3.6,3.71.95,6.21,2.23,7.48,3.84,1.28,1.6,2.07,3.07,2.38,4.41s.47,5.03.47,11.07v19.73h-17.42v-24.86c0-4-.3-6.48-.91-7.44-.61-.95-2.21-1.43-4.79-1.43v33.73h-18.75v-74.81ZM587.31,231.36v16.64c2.11,0,3.59-.3,4.43-.9s1.27-2.55,1.27-5.85v-4.11c0-2.37-.41-3.93-1.23-4.67s-2.31-1.11-4.48-1.11Z"/>
      <path class="st6" d="M675.56,218.56v74.81h-16.39l-.02-50.51-6.53,50.51h-11.63l-6.88-49.35-.02,49.35h-16.39v-74.81h24.27c.72,4.5,1.46,9.8,2.23,15.9l2.66,19.03,4.31-34.93h24.4Z"/>
    </g>
    <g>
      <path class="st3" d="M352.66,232.38h22.27c16.15,0,24.59,4.33,24.59,18.38s-7.86,19.34-24.3,19.34h-6.26v21.51h-16.3v-59.23ZM373.48,266.73c7.42,0,9.75-2.41,9.75-15.73s-2.18-15.33-10.04-15.33h-4.22v31.06h4.51Z"/>
      <path class="st3" d="M428.05,266.97h-4.95v24.64h-16.01v-59.23h22.12c14.41,0,25.9,3.13,25.9,17.1,0,8.27-4.37,13.08-11.35,15.49l11.64,26.65h-16.59l-10.77-24.64ZM428.92,263.2c6.69,0,10.04-2.33,10.04-14.04s-3.49-13.48-10.33-13.48h-5.53v27.53h5.82Z"/>
      <path class="st3" d="M460.94,262c0-23.52,9.17-30.1,26.34-30.1s26.34,6.58,26.34,30.1-9.17,30.1-26.34,30.1-26.34-6.58-26.34-30.1ZM497.03,262c0-23.76-1.75-26.97-9.75-26.97s-9.75,3.21-9.75,26.97,1.75,26.97,9.75,26.97,9.75-3.29,9.75-26.97Z"/>
    </g>
    <path class="st2" d="M515.36,228.06H227.03l4-8.24h290.33l-2.69,2.28c-1.66,1.41-2.79,3.34-3.22,5.48l-.09.48Z"/>
    <polygon class="st2" points="30.42 228.06 199.18 228.06 201.44 223.14 201.24 219.83 30.42 219.83 30.42 228.06"/>
  </g>
</svg>