<?xml version="1.0" encoding="UTF-8"?>
<svg xmlns="http://www.w3.org/2000/svg" version="1.1" viewBox="0 0 650 260">
  <!-- Generator: Adobe Illustrator 30.2.1, SVG Export Plug-In . SVG Version: 2.1.1 Build 1)  -->
  <defs>
    <style>
      .st0 {
        stroke: #102448;
        stroke-width: .99px;
      }

      .st0, .st1, .st2, .st3, .st4 {
        stroke-miterlimit: 10;
      }

      .st0, .st5 {
        fill: #ffcd02;
      }

      .st1, .st2 {
        stroke: #231f20;
      }

      .st1, .st3, .st4, .st6 {
        fill: #102448;
      }

      .st2 {
        fill: #28aae2;
        stroke-width: 1.09px;
      }

      .st7, .st8 {
        fill: #8e1f1f;
      }

      .st3, .st4 {
        stroke: #112547;
      }

      .st4 {
        stroke-width: 1.03px;
      }

      .st8 {
        font-family: Impact, Impact;
        font-size: 73px;
      }

      .st9 {
        display: none;
      }
    </style>
  </defs>
  <g id="Layer_1" class="st9">
    <rect class="st1" x="-25" y="-40" width="792" height="300"/>
  </g>
  <g id="Layer_2">
    <g>
      <path class="st6" d="M8.23,146.98L41.13,3.54h47.9l-33.16,143.71c-5,21.85-2.9,29.48,12.63,29.48s21.58-7.63,26.85-29.74L128.25,3.54h20.27l-32.9,143.45c-9.74,41.59-28.69,53.43-60.8,53.43S-1.51,188.57,8.23,146.98Z"/>
      <path class="st6" d="M161.15,3.54h45.53l-44.74,194.24h-45.53L161.15,3.54Z"/>
      <path class="st6" d="M208.52,204.62l-10-138.45h45.27l4.47,63.7,33.69-63.7h18.16l-94.75,178.98h-18.16l21.32-40.53Z"/>
      <path class="st6" d="M270.9,195.94l3.42-14.74c4.74.53,8.95.79,13.95.79,13.42,0,16.58-3.95,18.42-11.05.79-3.42.53-6.84-1.32-13.16-1.32-4.74-3.42-10.79-6.58-19.48-2.63-8.42-4.74-15-5.53-20.53-1.05-7.9-.53-16.32.79-21.58,4.47-19.21,21.85-31.32,51.85-31.32,13.42,0,19.21,1.58,24.22,3.16l-3.42,14.74c-3.95-.53-7.11-.79-11.58-.79-12.11,0-14.48,3.95-16.32,11.58-.53,2.9-.26,6.05,1.32,11.84,1.58,5,3.68,11.58,7.11,21.32,3.16,8.95,5,15.79,5.79,21.32.79,7.11.26,14.48-.79,19.21-5,22.11-22.64,31.85-50.27,31.85-11.84,0-25.79-1.84-31.06-3.16Z"/>
      <path class="st6" d="M349.07,195.94l3.42-14.74c4.74.53,8.95.79,13.95.79,13.42,0,16.58-3.95,18.42-11.05.79-3.42.53-6.84-1.32-13.16-1.32-4.74-3.42-10.79-6.58-19.48-2.63-8.42-4.74-15-5.53-20.53-1.05-7.9-.53-16.32.79-21.58,4.47-19.21,21.85-31.32,51.85-31.32,13.42,0,19.21,1.58,24.21,3.16l-3.42,14.74c-3.95-.53-7.11-.79-11.58-.79-12.11,0-14.48,3.95-16.32,11.58-.53,2.9-.26,6.05,1.32,11.84,1.58,5,3.68,11.58,7.11,21.32,3.16,8.95,5,15.79,5.79,21.32.79,7.11.26,14.48-.79,19.21-5,22.11-22.64,31.85-50.27,31.85-11.84,0-25.79-1.84-31.06-3.16Z"/>
      <path class="st6" d="M444.35,126.72c12.63-54.75,36.32-63.17,64.75-63.17,32.64,0,46.32,12.11,34.22,64.75-1.32,6.05-3.42,13.95-4.74,17.9h-54.48c-7.11,33.16-2.1,35.8,13.95,35.8,10.26,0,18.16-.26,27.37-.79l-3.42,14.74c-10.53,1.58-21.32,3.16-34.74,3.16-33.69,0-56.59-12.9-42.9-72.38ZM487.78,130.4h12.11c10.27-45.8,10.27-50.27,5.53-50.27-5.26,0-6.84,4.21-17.63,50.27Z"/>
      <path class="st6" d="M533.84,195.94l3.42-14.74c4.74.53,8.95.79,13.95.79,13.42,0,16.58-3.95,18.42-11.05.79-3.42.53-6.84-1.32-13.16-1.32-4.74-3.42-10.79-6.58-19.48-2.63-8.42-4.74-15-5.53-20.53-1.05-7.9-.53-16.32.79-21.58,4.47-19.21,21.85-31.32,51.85-31.32,13.42,0,19.21,1.58,24.21,3.16l-3.42,14.74c-3.95-.53-7.11-.79-11.58-.79-12.11,0-14.48,3.95-16.32,11.58-.53,2.9-.26,6.05,1.32,11.84,1.58,5,3.69,11.58,7.11,21.32,3.16,8.95,5,15.79,5.79,21.32.79,7.11.26,14.48-.79,19.21-5,22.11-22.64,31.85-50.27,31.85-11.84,0-25.79-1.84-31.06-3.16Z"/>
    </g>
  </g>
  <g id="Layer_4" class="st9">
    <g>
      <path class="st0" d="M448.23,226.07h-14.27v-9.74c0-2.83-.15-4.6-.46-5.3s-.98-1.05-2.02-1.05c-1.17,0-1.92.43-2.24,1.28-.32.85-.47,2.7-.47,5.54v26.04c0,2.72.16,4.5.47,5.33s1.03,1.25,2.14,1.25,1.76-.42,2.08-1.25c.33-.83.49-2.79.49-5.87v-7.05h14.27v2.18c0,5.8-.4,9.92-1.2,12.34-.8,2.43-2.58,4.55-5.32,6.38-2.75,1.83-6.13,2.74-10.15,2.74s-7.63-.77-10.34-2.32-4.51-3.69-5.39-6.42-1.32-6.85-1.32-12.34v-16.38c0-4.04.14-7.07.41-9.09.27-2.02,1.08-3.96,2.42-5.83s3.21-3.34,5.59-4.41,5.12-1.61,8.22-1.61c4.2,0,7.67.83,10.41,2.49,2.73,1.66,4.53,3.73,5.39,6.21.86,2.48,1.29,6.33,1.29,11.57v5.33Z"/>
      <path class="st0" d="M453.34,201.66h10.1c6.73,0,11.29.27,13.68.8,2.38.53,4.33,1.89,5.83,4.07s2.25,5.66,2.25,10.44c0,4.36-.53,7.29-1.59,8.79-1.06,1.5-3.15,2.4-6.27,2.7,2.82.72,4.72,1.67,5.69,2.87.97,1.2,1.58,2.3,1.81,3.31s.36,3.77.36,8.29v14.78h-13.25v-18.63c0-3-.23-4.86-.69-5.57-.46-.72-1.68-1.07-3.64-1.07v25.28h-14.27v-56.06ZM467.61,211.25v12.46c1.6,0,2.73-.23,3.37-.68s.97-1.91.97-4.38v-3.08c0-1.78-.31-2.94-.93-3.5s-1.76-.83-3.41-.83Z"/>
      <path class="st0" d="M534.76,201.66v56.06h-12.47l-.02-37.85-4.97,37.85h-8.85l-5.24-36.98-.02,36.98h-12.47v-56.06h18.46c.55,3.37,1.11,7.34,1.69,11.92l2.03,14.26,3.28-26.18h18.56Z"/>
    </g>
  </g>
  <g id="Layer_8">
    <g>
      <path class="st2" d="M406.74,239.89c0,6.79,0,10.33,4.74,10.33s4.86-3.86,4.86-10.02v-2.47h14.21v.23c0,10.56-2.3,14.26-6.27,17.19-2.69,1.93-7.04,3.08-12.93,3.08s-10.11-1.16-12.93-3.08c-3.84-2.7-5.89-6.48-5.89-17.04v-16.73c0-10.56,2.05-14.34,5.89-17.04,2.82-1.93,7.17-3.08,12.93-3.08s10.11,1.16,12.93,3.08c3.84,2.7,6.02,6.25,6.02,15.96v.31h-14.21v-1.39c0-6.17,0-9.95-4.61-9.95s-4.74,3.55-4.74,10.33v20.28Z"/>
      <path class="st2" d="M466.9,231.56l8.7,25.75h-14.72l-6.91-22.98h-3.07v17.35l.13,5.63h-14.21l.13-5.63v-43.87l-.13-5.63h16.77c16.64,0,20.73,7.32,20.73,16.19v.15c0,5.4-1.92,10.18-7.42,13.03ZM450.9,227.01h1.28c6.78,0,8.06-3.78,8.06-8.56v-.15c0-4.78-1.41-8.64-7.68-8.64h-1.66v17.35Z"/>
      <path class="st2" d="M481.1,251.68v-43.87l-.13-5.63h18.69l6.02,26.6c.51,2.24,1.02,5.86,1.28,7.86h.51c.26-2,.77-5.63,1.28-7.86l6.02-26.6h18.56l-.13,5.63v43.87l.13,5.63h-12.54l.13-5.63v-26.21c0-2.16.26-5.09.38-7.09h-.51c-.38,2-1.02,5.55-1.54,7.4l-7.17,31.54h-9.98l-7.17-31.54c-.38-1.85-1.15-5.4-1.41-7.4h-.51c.13,2,.38,4.93.38,7.09v26.21l.13,5.63h-12.54l.13-5.63Z"/>
    </g>
  </g>
  <g id="Layer_3" class="st9">
    <g>
      <path class="st5" d="M48.1,13.05l-.16,2.75c.84-1.11,1.77-1.94,2.79-2.49s2.12-.82,3.33-.82c1.47,0,2.74.39,3.81,1.18s1.74,1.7,2,2.73.4,2.78.4,5.25v13.1c0,2.83-.17,4.84-.5,6.04s-1.02,2.15-2.06,2.86-2.29,1.07-3.76,1.07c-1.17,0-2.26-.27-3.26-.82s-1.91-1.36-2.74-2.44v7.13h-9.47V13.05h9.63ZM50.8,22.1c0-1.92-.07-3.09-.21-3.49s-.53-.61-1.17-.61-1.03.23-1.21.7-.27,1.6-.27,3.4v12.89c0,1.88.09,3.05.28,3.52s.59.7,1.22.7.99-.21,1.14-.64.22-1.47.22-3.13v-13.34Z"/>
      <path class="st5" d="M72.85,13.05l-.38,4.09c1.38-2.93,3.37-4.48,5.98-4.65v10.95c-1.73,0-3.01.23-3.82.7s-1.31,1.12-1.5,1.96-.28,2.76-.28,5.78v12.28h-9.47V13.05h9.47Z"/>
      <path class="st5" d="M101.98,23.97v7.62c0,2.8-.14,4.85-.42,6.15-.28,1.3-.88,2.52-1.8,3.66s-2.11,1.97-3.55,2.51-3.11.81-4.98.81c-2.09,0-3.87-.23-5.32-.69s-2.58-1.16-3.39-2.09-1.38-2.05-1.72-3.38-.52-3.3-.52-5.94v-7.97c0-2.89.31-5.15.94-6.77s1.75-2.93,3.38-3.91,3.7-1.48,6.23-1.48c2.12,0,3.95.32,5.47.95s2.7,1.46,3.53,2.47,1.39,2.06,1.7,3.14.46,2.72.46,4.92ZM92.52,21.63c0-1.59-.09-2.6-.26-3.01s-.54-.62-1.1-.62-.94.21-1.12.62-.28,1.42-.28,3.01v14.04c0,1.47.09,2.43.28,2.87s.55.67,1.1.67.93-.2,1.11-.61.27-1.28.27-2.62v-14.34Z"/>
      <path class="st5" d="M115.13,13.05v24.61c0,2.89-.06,4.85-.18,5.87s-.48,1.92-1.08,2.7-1.41,1.35-2.41,1.72-2.52.56-4.54.56h-3.66v-4.97c1.12,0,1.76-.12,1.9-.38.14-.25.21-1.81.21-4.69V13.05h9.75ZM115.13,6.21v4.95h-9.75v-4.95h9.75Z"/>
      <path class="st5" d="M139.98,29.15h-12.26v6.73c0,1.41.1,2.31.3,2.72s.59.61,1.17.61c.72,0,1.2-.27,1.44-.81s.36-1.58.36-3.13v-4.1h8.98v2.3c0,1.92-.12,3.4-.36,4.43s-.81,2.13-1.7,3.3-2.02,2.05-3.39,2.64-3.08.88-5.14.88-3.77-.29-5.3-.87-2.72-1.37-3.57-2.38-1.44-2.12-1.77-3.33-.49-2.97-.49-5.29v-9.07c0-2.72.37-4.86,1.1-6.43s1.94-2.77,3.61-3.61,3.59-1.25,5.77-1.25c2.66,0,4.85.5,6.57,1.51s2.94,2.34,3.63,4.01,1.04,4,1.04,7.02v4.12ZM130.48,24.09v-2.27c0-1.61-.09-2.65-.26-3.12s-.52-.7-1.05-.7c-.66,0-1.06.2-1.22.6s-.23,1.47-.23,3.22v2.27h2.77Z"/>
      <path class="st5" d="M164,24.79h-8.93v-3.59c0-1.25-.1-2.1-.3-2.54-.2-.45-.58-.67-1.12-.67s-.91.2-1.1.59-.28,1.27-.28,2.62v14.67c0,1.11.14,1.94.42,2.5s.7.83,1.24.83c.64,0,1.07-.29,1.3-.87s.34-1.67.34-3.28v-3.7h8.44c-.02,2.48-.11,4.35-.27,5.59s-.69,2.52-1.57,3.82-2.04,2.29-3.46,2.95-3.18,1-5.27,1c-2.67,0-4.79-.46-6.35-1.37s-2.67-2.2-3.32-3.84-.97-3.99-.97-7.02v-8.84c0-2.64.27-4.63.8-5.98s1.66-2.54,3.4-3.6,3.84-1.58,6.33-1.58,4.58.52,6.33,1.57,2.91,2.37,3.49,3.96.87,3.85.87,6.77Z"/>
      <path class="st5" d="M176.8,8.9v4.9h2.55v4.92h-2.55v16.64c0,2.05.11,3.19.32,3.42s1.09.35,2.64.35v5.02h-3.82c-2.16,0-3.7-.09-4.62-.27-.92-.18-1.73-.59-2.44-1.24s-1.14-1.39-1.31-2.23c-.17-.84-.26-2.8-.26-5.89v-15.8h-2.04v-4.92h2.04v-4.9h9.49Z"/>
    </g>
  </g>
  <g id="Layer_5" class="st9">
    <text class="st8" transform="translate(395.45 259)"><tspan x="0" y="0">PRO</tspan></text>
  </g>
  <g id="Layer_7">
    <g>
      <path class="st7" d="M537.96,211.77h12.31c8.93,0,13.6,2.62,13.6,11.11s-4.35,11.69-13.44,11.69h-3.46v13h-9.01v-35.81ZM549.47,232.54c4.1,0,5.39-1.46,5.39-9.51s-1.21-9.27-5.55-9.27h-2.33v18.78h2.49Z"/>
      <path class="st7" d="M579.65,232.68h-2.74v14.9h-8.85v-35.81h12.23c7.97,0,14.33,1.89,14.33,10.34,0,5-2.41,7.91-6.28,9.37l6.44,16.11h-9.18l-5.95-14.9ZM580.13,230.4c3.7,0,5.55-1.41,5.55-8.49s-1.93-8.15-5.71-8.15h-3.06v16.64h3.22Z"/>
      <path class="st7" d="M597.84,229.67c0-14.22,5.07-18.2,14.57-18.2s14.57,3.98,14.57,18.2-5.07,18.2-14.57,18.2-14.57-3.98-14.57-18.2ZM617.8,229.67c0-14.36-.97-16.3-5.39-16.3s-5.39,1.94-5.39,16.3.97,16.3,5.39,16.3,5.39-1.99,5.39-16.3Z"/>
    </g>
    <path class="st3" d="M389.99,209.56h-182.33l4-8.24h184.33l-2.69,2.28c-1.66,1.41-2.79,3.34-3.22,5.48l-.09.48Z"/>
    <polygon class="st6" points="6.05 209.56 207.38 209.56 210.07 204.64 209.84 201.33 6.05 201.33 6.05 209.56"/>
    <rect class="st4" x="537.96" y="201.33" width="88.82" height="8.24"/>
    <rect class="st4" x="537.96" y="249.48" width="88.82" height="8.24"/>
  </g>
</svg>