<?xml version="1.0" encoding="UTF-8"?>
<svg id="Layer_2" data-name="Layer 2" xmlns="http://www.w3.org/2000/svg" viewBox="0 0 793 301">
  <defs>
    <style>
      .cls-1 {
        fill: #ffcd02;
      }

      .cls-2 {
        fill: #002349;
      }
    </style>
  </defs>
  <g>
    <path class="cls-2" d="M35.46,210.94l27.75-120.99h40.4l-27.97,121.21c-4.22,18.43-2.44,24.86,10.66,24.86s18.2-6.44,22.64-25.09l27.75-120.99h17.09l-27.75,120.99c-8.21,35.08-24.2,45.07-51.28,45.07s-47.51-9.99-39.29-45.07Z"/>
    <path class="cls-2" d="M164.45,89.95h38.41l-37.74,163.84h-38.41l37.74-163.84Z"/>
    <path class="cls-2" d="M204.41,259.56l-8.44-116.77h38.18l3.77,53.72,28.42-53.72h15.32l-79.92,150.96h-15.32l17.98-34.19Z"/>
    <path class="cls-2" d="M257.02,252.23l2.89-12.43c4,.44,7.55.67,11.77.67,11.32,0,13.99-3.33,15.54-9.32.67-2.89.44-5.77-1.11-11.1-1.11-4-2.89-9.1-5.55-16.43-2.22-7.1-4-12.65-4.66-17.32-.89-6.66-.44-13.76.67-18.2,3.77-16.21,18.43-26.42,43.73-26.42,11.32,0,16.21,1.33,20.42,2.66l-2.89,12.43c-3.33-.44-5.99-.67-9.77-.67-10.21,0-12.21,3.33-13.76,9.77-.44,2.44-.22,5.11,1.11,9.99,1.33,4.22,3.11,9.77,5.99,17.98,2.66,7.55,4.22,13.32,4.88,17.98.67,5.99.22,12.21-.67,16.21-4.22,18.65-19.09,26.86-42.4,26.86-9.99,0-21.76-1.55-26.2-2.66Z"/>
    <path class="cls-2" d="M322.95,252.23l2.89-12.43c4,.44,7.55.67,11.77.67,11.32,0,13.99-3.33,15.54-9.32.67-2.89.44-5.77-1.11-11.1-1.11-4-2.89-9.1-5.55-16.43-2.22-7.1-4-12.65-4.66-17.32-.89-6.66-.44-13.76.67-18.2,3.77-16.21,18.43-26.42,43.73-26.42,11.32,0,16.21,1.33,20.42,2.66l-2.89,12.43c-3.33-.44-5.99-.67-9.77-.67-10.21,0-12.21,3.33-13.76,9.77-.44,2.44-.22,5.11,1.11,9.99,1.33,4.22,3.11,9.77,5.99,17.98,2.66,7.55,4.22,13.32,4.88,17.98.67,5.99.22,12.21-.67,16.21-4.22,18.65-19.09,26.86-42.4,26.86-9.99,0-21.76-1.55-26.2-2.66Z"/>
    <path class="cls-2" d="M403.32,193.85c10.66-46.18,30.64-53.28,54.61-53.28,27.53,0,39.07,10.21,28.86,54.61-1.11,5.11-2.89,11.77-4,15.1h-45.95c-5.99,27.97-1.78,30.19,11.77,30.19,8.66,0,15.32-.22,23.09-.67l-2.89,12.43c-8.88,1.33-17.98,2.66-29.3,2.66-28.42,0-47.73-10.88-36.19-61.05ZM439.95,196.95h10.21c8.66-38.63,8.66-42.4,4.66-42.4-4.44,0-5.77,3.55-14.87,42.4Z"/>
    <path class="cls-2" d="M478.79,252.23l2.89-12.43c4,.44,7.55.67,11.77.67,11.32,0,13.99-3.33,15.54-9.32.67-2.89.44-5.77-1.11-11.1-1.11-4-2.89-9.1-5.55-16.43-2.22-7.1-4-12.65-4.66-17.32-.89-6.66-.44-13.76.67-18.2,3.77-16.21,18.43-26.42,43.73-26.42,11.32,0,16.21,1.33,20.42,2.66l-2.89,12.43c-3.33-.44-5.99-.67-9.77-.67-10.21,0-12.21,3.33-13.76,9.77-.44,2.44-.22,5.11,1.11,9.99,1.33,4.22,3.11,9.77,5.99,17.98,2.66,7.55,4.22,13.32,4.88,17.98.67,5.99.22,12.21-.67,16.21-4.22,18.65-19.09,26.86-42.4,26.86-9.99,0-21.76-1.55-26.2-2.66Z"/>
  </g>
  <g>
    <path class="cls-1" d="M73.6,53.55l-.16,2.75c.84-1.11,1.77-1.94,2.79-2.49s2.12-.82,3.33-.82c1.47,0,2.74.39,3.81,1.18s1.74,1.7,2,2.73.4,2.78.4,5.25v13.1c0,2.83-.17,4.84-.5,6.04s-1.02,2.15-2.06,2.86-2.29,1.07-3.76,1.07c-1.17,0-2.26-.27-3.26-.82s-1.91-1.36-2.74-2.44v7.13h-9.47v-35.53h9.63ZM76.3,62.6c0-1.92-.07-3.09-.21-3.49s-.53-.61-1.17-.61-1.03.23-1.21.7-.27,1.6-.27,3.4v12.89c0,1.88.09,3.05.28,3.52s.59.7,1.22.7.99-.21,1.14-.64.22-1.47.22-3.13v-13.34Z"/>
    <path class="cls-1" d="M98.35,53.55l-.38,4.09c1.38-2.93,3.37-4.48,5.98-4.65v10.95c-1.73,0-3.01.23-3.82.7s-1.31,1.12-1.5,1.96-.28,2.76-.28,5.78v12.28h-9.47v-31.1h9.47Z"/>
    <path class="cls-1" d="M127.48,64.47v7.62c0,2.8-.14,4.85-.42,6.15s-.88,2.52-1.8,3.66-2.11,1.97-3.55,2.51-3.11.81-4.98.81c-2.09,0-3.87-.23-5.32-.69s-2.58-1.16-3.39-2.09-1.38-2.05-1.72-3.38-.52-3.3-.52-5.94v-7.97c0-2.89.31-5.15.94-6.77s1.75-2.93,3.38-3.91,3.7-1.48,6.23-1.48c2.12,0,3.95.32,5.47.95s2.7,1.46,3.53,2.47,1.39,2.06,1.7,3.14.46,2.72.46,4.92ZM118.02,62.13c0-1.59-.09-2.6-.26-3.01s-.54-.62-1.1-.62-.94.21-1.12.62-.28,1.42-.28,3.01v14.04c0,1.47.09,2.43.28,2.87s.55.67,1.1.67.93-.2,1.11-.61.27-1.28.27-2.62v-14.34Z"/>
    <path class="cls-1" d="M140.63,53.55v24.61c0,2.89-.06,4.85-.18,5.87s-.48,1.92-1.08,2.7-1.41,1.35-2.41,1.72-2.52.56-4.54.56h-3.66v-4.97c1.12,0,1.76-.12,1.9-.38s.21-1.81.21-4.69v-25.43h9.75ZM140.63,46.71v4.95h-9.75v-4.95h9.75Z"/>
    <path class="cls-1" d="M165.48,69.65h-12.26v6.73c0,1.41.1,2.31.3,2.72s.59.61,1.17.61c.72,0,1.2-.27,1.44-.81s.36-1.58.36-3.13v-4.1h8.98v2.3c0,1.92-.12,3.4-.36,4.43s-.81,2.13-1.7,3.3-2.02,2.05-3.39,2.64-3.08.88-5.14.88-3.77-.29-5.3-.87-2.72-1.37-3.57-2.38-1.44-2.12-1.77-3.33-.49-2.97-.49-5.29v-9.07c0-2.72.37-4.86,1.1-6.43s1.94-2.77,3.61-3.61,3.59-1.25,5.77-1.25c2.66,0,4.85.5,6.57,1.51s2.94,2.34,3.63,4.01,1.04,4,1.04,7.02v4.12ZM155.98,64.59v-2.27c0-1.61-.09-2.65-.26-3.12s-.52-.7-1.05-.7c-.66,0-1.06.2-1.22.6s-.23,1.47-.23,3.22v2.27h2.77Z"/>
    <path class="cls-1" d="M189.5,65.29h-8.93v-3.59c0-1.25-.1-2.1-.3-2.54s-.58-.67-1.12-.67-.91.2-1.1.59-.28,1.27-.28,2.62v14.67c0,1.11.14,1.94.42,2.5s.7.83,1.24.83c.64,0,1.07-.29,1.3-.87s.34-1.67.34-3.28v-3.7h8.44c-.02,2.48-.11,4.35-.27,5.59s-.69,2.52-1.57,3.82-2.04,2.29-3.46,2.95-3.18,1-5.27,1c-2.67,0-4.79-.46-6.35-1.37s-2.67-2.2-3.32-3.84-.97-3.99-.97-7.02v-8.84c0-2.64.27-4.63.8-5.98s1.66-2.54,3.4-3.6,3.84-1.58,6.33-1.58,4.58.52,6.33,1.57,2.91,2.37,3.49,3.96.87,3.85.87,6.77Z"/>
    <path class="cls-1" d="M202.3,49.4v4.9h2.55v4.92h-2.55v16.64c0,2.05.11,3.19.32,3.42s1.09.35,2.64.35v5.02h-3.82c-2.16,0-3.7-.09-4.62-.27s-1.73-.59-2.44-1.24-1.14-1.39-1.31-2.23-.26-2.8-.26-5.89v-15.8h-2.04v-4.92h2.04v-4.9h9.49Z"/>
  </g>
  <g>
    <path class="cls-1" d="M575.93,261.61h-14.8v-9.89c0-2.88-.16-4.67-.47-5.38s-1.01-1.07-2.09-1.07c-1.22,0-1.99.43-2.32,1.3-.33.87-.49,2.74-.49,5.62v26.44c0,2.77.16,4.57.49,5.41s1.07,1.27,2.21,1.27,1.82-.42,2.16-1.27c.34-.85.51-2.83.51-5.96v-7.15h14.8v2.22c0,5.89-.42,10.07-1.25,12.53-.83,2.46-2.67,4.62-5.52,6.48-2.85,1.85-6.36,2.78-10.53,2.78s-7.91-.79-10.72-2.36-4.68-3.74-5.59-6.52-1.37-6.96-1.37-12.53v-16.63c0-4.1.14-7.18.42-9.23.28-2.05,1.12-4.03,2.51-5.92s3.33-3.39,5.8-4.48,5.31-1.63,8.53-1.63c4.36,0,7.96.84,10.79,2.53,2.84,1.69,4.7,3.79,5.59,6.3.89,2.52,1.34,6.43,1.34,11.74v5.41Z"/>
    <path class="cls-1" d="M581.24,236.83h10.48c6.98,0,11.71.27,14.19.81,2.47.54,4.49,1.92,6.05,4.13s2.34,5.75,2.34,10.6c0,4.43-.55,7.41-1.65,8.93-1.1,1.52-3.27,2.44-6.5,2.74,2.93.73,4.9,1.7,5.91,2.92,1.01,1.22,1.63,2.34,1.88,3.36s.37,3.83.37,8.42v15.01h-13.75v-18.91c0-3.05-.24-4.93-.72-5.66-.48-.73-1.74-1.09-3.78-1.09v25.66h-14.8v-56.92ZM596.04,246.56v12.66c1.66,0,2.83-.23,3.5-.69s1-1.94,1-4.45v-3.13c0-1.8-.32-2.99-.97-3.55s-1.82-.84-3.53-.84Z"/>
    <path class="cls-1" d="M665.69,236.83v56.92h-12.94l-.02-38.43-5.15,38.43h-9.18l-5.43-37.55-.02,37.55h-12.94v-56.92h19.15c.57,3.42,1.15,7.46,1.76,12.1l2.1,14.48,3.4-26.58h19.26Z"/>
  </g>
</svg>